G04*
G04 #@! TF.GenerationSoftware,Altium Limited,Altium Designer,22.6.1 (34)*
G04*
G04 Layer_Physical_Order=1*
G04 Layer_Color=255*
%FSLAX44Y44*%
%MOMM*%
G71*
G04*
G04 #@! TF.SameCoordinates,4A2B6ED2-E769-494B-A906-BAD3D60E24F7*
G04*
G04*
G04 #@! TF.FilePolarity,Positive*
G04*
G01*
G75*
%ADD10C,0.2000*%
%ADD11C,0.2540*%
%ADD19R,1.5500X0.6000*%
%ADD20R,0.7800X0.9100*%
%ADD21R,0.9100X0.7800*%
%ADD22C,2.5000*%
%ADD23R,1.5000X1.5000*%
%ADD24C,1.5000*%
%ADD25C,0.8000*%
G36*
X1082040Y864870D02*
X321310D01*
Y1252220D01*
X1082040D01*
Y864870D01*
D02*
G37*
%LPC*%
G36*
X656720Y1192990D02*
X636140D01*
Y1181910D01*
X656720D01*
Y1192990D01*
D02*
G37*
G36*
X506820Y1170410D02*
X493940D01*
Y1167205D01*
X470380D01*
Y1169140D01*
X457500D01*
Y1154960D01*
X470380D01*
Y1159435D01*
X493940D01*
Y1156230D01*
X506820D01*
Y1170410D01*
D02*
G37*
G36*
X656720Y1167590D02*
X636140D01*
Y1165935D01*
X631408D01*
X629921Y1165639D01*
X628661Y1164797D01*
X627173Y1163309D01*
X626331Y1162049D01*
X626035Y1160562D01*
Y1092200D01*
X626331Y1090713D01*
X627173Y1089453D01*
X632140Y1084486D01*
Y1078335D01*
X629585D01*
Y1064155D01*
X642465D01*
Y1065455D01*
X668887D01*
X669796Y1063881D01*
X671451Y1062226D01*
X673479Y1061056D01*
X675740Y1060450D01*
X678080D01*
X680341Y1061056D01*
X682369Y1062226D01*
X684024Y1063881D01*
X685194Y1065909D01*
X685800Y1068170D01*
Y1070510D01*
X685194Y1072771D01*
X684024Y1074799D01*
X682369Y1076454D01*
X680341Y1077624D01*
X678080Y1078230D01*
X675740D01*
X673479Y1077624D01*
X671451Y1076454D01*
X669796Y1074799D01*
X668887Y1073225D01*
X642465D01*
Y1078335D01*
X639910D01*
Y1086095D01*
X639614Y1087582D01*
X638772Y1088842D01*
X633805Y1093809D01*
Y1158165D01*
X636140D01*
Y1156510D01*
X656720D01*
Y1167590D01*
D02*
G37*
G36*
X368511Y1175820D02*
X365549D01*
X362643Y1175242D01*
X359906Y1174108D01*
X357443Y1172462D01*
X355348Y1170367D01*
X353702Y1167904D01*
X352568Y1165167D01*
X351990Y1162261D01*
Y1159299D01*
X352568Y1156393D01*
X353702Y1153656D01*
X355348Y1151193D01*
X357443Y1149098D01*
X359906Y1147452D01*
X362643Y1146318D01*
X365549Y1145740D01*
X368511D01*
X371417Y1146318D01*
X374154Y1147452D01*
X376617Y1149098D01*
X378712Y1151193D01*
X380358Y1153656D01*
X381492Y1156393D01*
X381592Y1156895D01*
X440600D01*
Y1154960D01*
X453480D01*
Y1169140D01*
X440600D01*
Y1164665D01*
X381592D01*
X381492Y1165167D01*
X380358Y1167904D01*
X378712Y1170367D01*
X376617Y1172462D01*
X374154Y1174108D01*
X371417Y1175242D01*
X368511Y1175820D01*
D02*
G37*
G36*
X895440Y1195810D02*
X882560D01*
Y1187774D01*
X873553Y1178767D01*
X872711Y1177507D01*
X872415Y1176020D01*
Y1157373D01*
X870841Y1156464D01*
X869186Y1154809D01*
X868016Y1152781D01*
X867410Y1150520D01*
Y1148180D01*
X868016Y1145919D01*
X869186Y1143891D01*
X870841Y1142236D01*
X872869Y1141066D01*
X875130Y1140460D01*
X877470D01*
X879731Y1141066D01*
X881759Y1142236D01*
X883414Y1143891D01*
X884323Y1145465D01*
X955160D01*
Y1144390D01*
X975240D01*
Y1164470D01*
X955160D01*
Y1153235D01*
X884323D01*
X883414Y1154809D01*
X881759Y1156464D01*
X880185Y1157373D01*
Y1174411D01*
X887404Y1181630D01*
X895440D01*
Y1195810D01*
D02*
G37*
G36*
X656720Y1154890D02*
X636140D01*
Y1143810D01*
X656720D01*
Y1154890D01*
D02*
G37*
G36*
X602720D02*
X582140D01*
Y1143810D01*
X602720D01*
Y1154890D01*
D02*
G37*
G36*
X932270Y1231370D02*
X919390D01*
Y1217190D01*
X926776D01*
X982969Y1160997D01*
X982566Y1160595D01*
X981244Y1158305D01*
X980560Y1155752D01*
Y1153108D01*
X981244Y1150555D01*
X982566Y1148265D01*
X984435Y1146396D01*
X986715Y1145080D01*
Y1119610D01*
X985820D01*
Y1105430D01*
X998700D01*
Y1119610D01*
X994485D01*
Y1145080D01*
X996765Y1146396D01*
X998634Y1148265D01*
X999956Y1150555D01*
X1000640Y1153108D01*
Y1155752D01*
X999956Y1158305D01*
X998634Y1160595D01*
X996765Y1162464D01*
X994475Y1163786D01*
X991922Y1164470D01*
X990484D01*
X932270Y1222684D01*
Y1231370D01*
D02*
G37*
G36*
X728980Y1214195D02*
X640080D01*
X638593Y1213899D01*
X637333Y1213057D01*
X615611Y1191335D01*
X602720D01*
Y1192990D01*
X582140D01*
Y1191335D01*
X558890D01*
Y1195810D01*
X546010D01*
Y1181630D01*
X558890D01*
Y1183565D01*
X582140D01*
Y1181910D01*
X602720D01*
Y1183565D01*
X617220D01*
X618707Y1183861D01*
X619967Y1184703D01*
X641689Y1206425D01*
X727371D01*
X803703Y1130093D01*
X804963Y1129251D01*
X806450Y1128955D01*
X952161D01*
X968920Y1112196D01*
Y1105430D01*
X970205D01*
Y1089750D01*
X967000D01*
Y1076870D01*
X981180D01*
Y1089750D01*
X977975D01*
Y1105430D01*
X981800D01*
Y1119610D01*
X972494D01*
X956517Y1135587D01*
X955257Y1136429D01*
X953770Y1136725D01*
X808059D01*
X731727Y1213057D01*
X730467Y1213899D01*
X728980Y1214195D01*
D02*
G37*
G36*
X523720Y1170410D02*
X510840D01*
Y1156230D01*
X523720D01*
Y1158165D01*
X582140D01*
Y1156510D01*
X602720D01*
Y1158165D01*
X611583D01*
X612610Y1157138D01*
Y1073875D01*
X612685Y1073500D01*
Y1064155D01*
X615875D01*
Y1035790D01*
X613320D01*
Y1021610D01*
X626200D01*
Y1035790D01*
X623645D01*
Y1064155D01*
X625565D01*
Y1078335D01*
X620380D01*
Y1158747D01*
X620084Y1160234D01*
X619242Y1161494D01*
X615939Y1164797D01*
X614679Y1165639D01*
X613192Y1165935D01*
X602720D01*
Y1167590D01*
X582140D01*
Y1165935D01*
X523720D01*
Y1170410D01*
D02*
G37*
G36*
X542190Y1056640D02*
X539850D01*
X537589Y1056034D01*
X535561Y1054864D01*
X533906Y1053209D01*
X532736Y1051181D01*
X532130Y1048920D01*
Y1046580D01*
X532736Y1044319D01*
X533906Y1042291D01*
X535561Y1040636D01*
X537135Y1039727D01*
Y996272D01*
X536633Y996172D01*
X533896Y995038D01*
X531433Y993392D01*
X529338Y991297D01*
X527692Y988834D01*
X526558Y986097D01*
X525980Y983191D01*
Y980229D01*
X526558Y977323D01*
X527692Y974586D01*
X529338Y972123D01*
X531433Y970028D01*
X533896Y968382D01*
X536633Y967248D01*
X539539Y966670D01*
X542501D01*
X545407Y967248D01*
X548144Y968382D01*
X550607Y970028D01*
X552702Y972123D01*
X554348Y974586D01*
X555482Y977323D01*
X555582Y977825D01*
X634782D01*
X636269Y978121D01*
X637529Y978963D01*
X639017Y980451D01*
X639859Y981711D01*
X640155Y983198D01*
Y1021610D01*
X643100D01*
Y1035790D01*
X630220D01*
Y1021610D01*
X632385D01*
Y985595D01*
X555582D01*
X555482Y986097D01*
X554348Y988834D01*
X552702Y991297D01*
X550607Y993392D01*
X548144Y995038D01*
X545407Y996172D01*
X544905Y996272D01*
Y1039727D01*
X546479Y1040636D01*
X548134Y1042291D01*
X549304Y1044319D01*
X549910Y1046580D01*
Y1048920D01*
X549304Y1051181D01*
X548134Y1053209D01*
X546479Y1054864D01*
X544451Y1056034D01*
X542190Y1056640D01*
D02*
G37*
G36*
X656720Y1180290D02*
X636140D01*
Y1169210D01*
X656720D01*
Y1170865D01*
X680645D01*
Y1151360D01*
X678090D01*
Y1137180D01*
X680645D01*
Y1117818D01*
X680941Y1116331D01*
X681783Y1115071D01*
X685811Y1111043D01*
X687071Y1110201D01*
X688558Y1109905D01*
X924485D01*
Y1063730D01*
X922810D01*
Y1055694D01*
X870133Y1003017D01*
X869291Y1001757D01*
X868995Y1000270D01*
Y932920D01*
X866440D01*
Y918740D01*
X879320D01*
Y932920D01*
X876765D01*
Y998661D01*
X927654Y1049550D01*
X935690D01*
Y1063730D01*
X932255D01*
Y1112302D01*
X931959Y1113789D01*
X931117Y1115049D01*
X929629Y1116537D01*
X928369Y1117379D01*
X926882Y1117675D01*
X690167D01*
X688415Y1119427D01*
Y1137180D01*
X690970D01*
Y1151360D01*
X688415D01*
Y1173262D01*
X688119Y1174749D01*
X687277Y1176009D01*
X685789Y1177497D01*
X684529Y1178339D01*
X683042Y1178635D01*
X656720D01*
Y1180290D01*
D02*
G37*
G36*
X857150Y1068070D02*
X854810D01*
X852549Y1067464D01*
X850521Y1066294D01*
X848866Y1064639D01*
X847696Y1062611D01*
X847090Y1060350D01*
Y1058010D01*
X847696Y1055749D01*
X848866Y1053721D01*
X850521Y1052066D01*
X852095Y1051158D01*
Y932920D01*
X849540D01*
Y918740D01*
X862420D01*
Y932920D01*
X859865D01*
Y1051158D01*
X861439Y1052066D01*
X863094Y1053721D01*
X864264Y1055749D01*
X864870Y1058010D01*
Y1060350D01*
X864264Y1062611D01*
X863094Y1064639D01*
X861439Y1066294D01*
X859411Y1067464D01*
X857150Y1068070D01*
D02*
G37*
%LPD*%
D10*
X974090Y1113790D02*
X975360Y1112520D01*
D11*
X974090Y1111250D02*
X974725Y1111885D01*
X974090Y1083310D02*
Y1111250D01*
X928370Y1057520D02*
X929250Y1056640D01*
X928370Y1057520D02*
Y1112302D01*
X688558Y1113790D02*
X926882D01*
X928370Y1112302D01*
X684530Y1117818D02*
X688558Y1113790D01*
X684530Y1117818D02*
Y1144270D01*
X646430Y1174750D02*
X683042D01*
X684530Y1144270D02*
Y1173262D01*
X683042Y1174750D02*
X684530Y1173262D01*
X367030Y1160780D02*
X445770D01*
X447040Y1162050D01*
X463940D02*
X465210Y1163320D01*
X500380D01*
X517280D02*
X518550Y1162050D01*
X592430D01*
X616495Y1073875D02*
X619125Y1071245D01*
X616495Y1073875D02*
Y1158747D01*
X592430Y1162050D02*
X613192D01*
X616495Y1158747D01*
X636025Y1071245D02*
Y1086095D01*
X629920Y1092200D02*
X636025Y1086095D01*
X629920Y1092200D02*
Y1160562D01*
X631408Y1162050D02*
X646430D01*
X629920Y1160562D02*
X631408Y1162050D01*
X636025Y1071245D02*
X637930Y1069340D01*
X676910D01*
X619760Y1028700D02*
Y1070610D01*
X619125Y1071245D02*
X619760Y1070610D01*
X541020Y981710D02*
Y1047750D01*
X636270Y1028310D02*
X636660Y1028700D01*
X634782Y981710D02*
X636270Y983198D01*
X541020Y981710D02*
X634782D01*
X636270Y983198D02*
Y1028310D01*
X553395Y1190315D02*
X556260Y1187450D01*
X953770Y1132840D02*
X974725Y1111885D01*
X806450Y1132840D02*
X953770D01*
X556260Y1187450D02*
X592430D01*
X517280Y1163320D02*
X518160Y1164200D01*
X592430Y1187450D02*
X617220D01*
X640080Y1210310D01*
X728980D01*
X990600Y1114800D02*
Y1154430D01*
X988216Y1156814D02*
Y1161244D01*
X925830Y1223630D02*
Y1224280D01*
Y1223630D02*
X988216Y1161244D01*
Y1156814D02*
X990600Y1154430D01*
X960120Y1149350D02*
X965200Y1154430D01*
X876300Y1149350D02*
X960120D01*
X876300Y1176020D02*
X889000Y1188720D01*
X876300Y1149350D02*
Y1176020D01*
X855980Y925830D02*
Y1059180D01*
X872880Y925830D02*
Y1000270D01*
X929250Y1056640D01*
X728980Y1210310D02*
X806450Y1132840D01*
D19*
X646430Y1174750D02*
D03*
Y1187450D02*
D03*
Y1162050D02*
D03*
Y1149350D02*
D03*
X592430Y1187450D02*
D03*
Y1174750D02*
D03*
Y1162050D02*
D03*
Y1149350D02*
D03*
D20*
X552450Y1188720D02*
D03*
X535550D02*
D03*
X684530Y1144270D02*
D03*
X701430D02*
D03*
X463940Y1162050D02*
D03*
X447040D02*
D03*
X619760Y1028700D02*
D03*
X636660D02*
D03*
X992260Y1112520D02*
D03*
X975360D02*
D03*
X855980Y925830D02*
D03*
X872880D02*
D03*
X500380Y1163320D02*
D03*
X517280D02*
D03*
X619125Y1071245D02*
D03*
X636025D02*
D03*
X908930Y1224280D02*
D03*
X925830D02*
D03*
X946150Y1056640D02*
D03*
X929250D02*
D03*
X872100Y1188720D02*
D03*
X889000D02*
D03*
D21*
X974090Y1066410D02*
D03*
Y1083310D02*
D03*
D22*
X516020Y1006710D02*
D03*
X566020D02*
D03*
Y956710D02*
D03*
X516020D02*
D03*
X541020Y981710D02*
D03*
X342030Y1185780D02*
D03*
X392030D02*
D03*
Y1135780D02*
D03*
X342030D02*
D03*
X367030Y1160780D02*
D03*
D23*
X965200Y1154430D02*
D03*
D24*
X990600D02*
D03*
X1016000D02*
D03*
D25*
X676910Y1069340D02*
D03*
X541020Y1047750D02*
D03*
X876300Y1149350D02*
D03*
X855980Y1059180D02*
D03*
M02*
