G04*
G04 #@! TF.GenerationSoftware,Altium Limited,Altium Designer,22.6.1 (34)*
G04*
G04 Layer_Color=8421504*
%FSLAX44Y44*%
%MOMM*%
G71*
G04*
G04 #@! TF.SameCoordinates,B626A951-E2A4-4A94-A8BC-FC3AC09B0655*
G04*
G04*
G04 #@! TF.FilePolarity,Positive*
G04*
G01*
G75*
%ADD12R,1.5500X0.6000*%
%ADD13R,0.7800X0.9100*%
%ADD14R,0.9100X0.7800*%
D12*
X592430Y1187450D02*
D03*
X646430Y1174750D02*
D03*
Y1187450D02*
D03*
Y1162050D02*
D03*
Y1149350D02*
D03*
X592430Y1174750D02*
D03*
Y1162050D02*
D03*
Y1149350D02*
D03*
D13*
X508000Y1235710D02*
D03*
X491100D02*
D03*
X561340Y1229360D02*
D03*
X578240D02*
D03*
X619760Y1028700D02*
D03*
X636660D02*
D03*
X855980Y925830D02*
D03*
X872880D02*
D03*
X618490Y1070610D02*
D03*
X635390D02*
D03*
X998220Y942340D02*
D03*
X1015120D02*
D03*
X908930Y1224280D02*
D03*
X925830D02*
D03*
X946150Y1056640D02*
D03*
X929250D02*
D03*
X872100Y1188720D02*
D03*
X889000D02*
D03*
D14*
X448310Y1144660D02*
D03*
Y1127760D02*
D03*
X1038860Y1067190D02*
D03*
Y1050290D02*
D03*
X497840Y1146420D02*
D03*
Y1163320D02*
D03*
M02*
