G04*
G04 #@! TF.GenerationSoftware,Altium Limited,Altium Designer,22.6.1 (34)*
G04*
G04 Layer_Physical_Order=4*
G04 Layer_Color=16711680*
%FSLAX44Y44*%
%MOMM*%
G71*
G04*
G04 #@! TF.SameCoordinates,4A2B6ED2-E769-494B-A906-BAD3D60E24F7*
G04*
G04*
G04 #@! TF.FilePolarity,Positive*
G04*
G01*
G75*
%ADD11C,0.2540*%
%ADD22C,2.5000*%
%ADD23R,1.5000X1.5000*%
%ADD24C,1.5000*%
%ADD25C,0.8000*%
G36*
X1065530Y871220D02*
X1065627Y871123D01*
X1065141Y869950D01*
X326390D01*
Y1239520D01*
X327660Y1240790D01*
X1065530D01*
Y871220D01*
D02*
G37*
%LPC*%
G36*
X368511Y1175820D02*
X365549D01*
X362643Y1175242D01*
X359906Y1174108D01*
X357443Y1172462D01*
X355348Y1170367D01*
X353702Y1167904D01*
X352568Y1165167D01*
X351990Y1162261D01*
Y1159299D01*
X352568Y1156393D01*
X353702Y1153656D01*
X355348Y1151193D01*
X357443Y1149098D01*
X359906Y1147452D01*
X362643Y1146318D01*
X365549Y1145740D01*
X368511D01*
X371417Y1146318D01*
X374154Y1147452D01*
X376617Y1149098D01*
X378712Y1151193D01*
X380358Y1153656D01*
X381492Y1156393D01*
X382070Y1159299D01*
Y1162261D01*
X381492Y1165167D01*
X380358Y1167904D01*
X378712Y1170367D01*
X376617Y1172462D01*
X374154Y1174108D01*
X371417Y1175242D01*
X368511Y1175820D01*
D02*
G37*
G36*
X991922Y1164470D02*
X989278D01*
X986725Y1163786D01*
X984435Y1162464D01*
X982566Y1160595D01*
X981244Y1158305D01*
X980560Y1155752D01*
Y1153108D01*
X981244Y1150555D01*
X982566Y1148265D01*
X984435Y1146396D01*
X986725Y1145074D01*
X989278Y1144390D01*
X991922D01*
X994475Y1145074D01*
X996765Y1146396D01*
X998634Y1148265D01*
X999956Y1150555D01*
X1000640Y1153108D01*
Y1155752D01*
X999956Y1158305D01*
X998634Y1160595D01*
X996765Y1162464D01*
X994475Y1163786D01*
X991922Y1164470D01*
D02*
G37*
G36*
X975240D02*
X955160D01*
Y1144390D01*
X975240D01*
Y1164470D01*
D02*
G37*
G36*
X877470Y1158240D02*
X875130D01*
X872869Y1157634D01*
X870841Y1156464D01*
X869186Y1154809D01*
X868016Y1152781D01*
X867410Y1150520D01*
Y1148180D01*
X867880Y1146424D01*
X853233Y1131777D01*
X852391Y1130517D01*
X852095Y1129030D01*
Y1067203D01*
X850521Y1066294D01*
X848866Y1064639D01*
X847696Y1062611D01*
X847090Y1060350D01*
Y1058010D01*
X847696Y1055749D01*
X848866Y1053721D01*
X850521Y1052066D01*
X852549Y1050896D01*
X854810Y1050290D01*
X857150D01*
X859411Y1050896D01*
X861439Y1052066D01*
X863094Y1053721D01*
X864264Y1055749D01*
X864870Y1058010D01*
Y1060350D01*
X864264Y1062611D01*
X863094Y1064639D01*
X861439Y1066294D01*
X859865Y1067203D01*
Y1127421D01*
X873374Y1140930D01*
X875130Y1140460D01*
X877470D01*
X879731Y1141066D01*
X881759Y1142236D01*
X883414Y1143891D01*
X884584Y1145919D01*
X885190Y1148180D01*
Y1150520D01*
X884584Y1152781D01*
X883414Y1154809D01*
X881759Y1156464D01*
X879731Y1157634D01*
X877470Y1158240D01*
D02*
G37*
G36*
X678080Y1078230D02*
X675740D01*
X673479Y1077624D01*
X671451Y1076454D01*
X669796Y1074799D01*
X668626Y1072771D01*
X668020Y1070510D01*
Y1068170D01*
X668626Y1065909D01*
X669796Y1063881D01*
X671451Y1062226D01*
X673025Y1061318D01*
Y1051635D01*
X549043D01*
X548134Y1053209D01*
X546479Y1054864D01*
X544451Y1056034D01*
X542190Y1056640D01*
X539850D01*
X537589Y1056034D01*
X535561Y1054864D01*
X533906Y1053209D01*
X532736Y1051181D01*
X532130Y1048920D01*
Y1046580D01*
X532736Y1044319D01*
X533906Y1042291D01*
X535561Y1040636D01*
X537589Y1039466D01*
X539850Y1038860D01*
X542190D01*
X544451Y1039466D01*
X546479Y1040636D01*
X548134Y1042291D01*
X549043Y1043865D01*
X675422D01*
X676909Y1044161D01*
X678169Y1045003D01*
X679657Y1046491D01*
X680499Y1047751D01*
X680795Y1049238D01*
Y1061318D01*
X682369Y1062226D01*
X684024Y1063881D01*
X685194Y1065909D01*
X685800Y1068170D01*
Y1070510D01*
X685194Y1072771D01*
X684024Y1074799D01*
X682369Y1076454D01*
X680341Y1077624D01*
X678080Y1078230D01*
D02*
G37*
G36*
X542501Y996750D02*
X539539D01*
X536633Y996172D01*
X533896Y995038D01*
X531433Y993392D01*
X529338Y991297D01*
X527692Y988834D01*
X526558Y986097D01*
X525980Y983191D01*
Y980229D01*
X526558Y977323D01*
X527692Y974586D01*
X529338Y972123D01*
X531433Y970028D01*
X533896Y968382D01*
X536633Y967248D01*
X539539Y966670D01*
X542501D01*
X545407Y967248D01*
X548144Y968382D01*
X550607Y970028D01*
X552702Y972123D01*
X554348Y974586D01*
X555482Y977323D01*
X556060Y980229D01*
Y983191D01*
X555482Y986097D01*
X554348Y988834D01*
X552702Y991297D01*
X550607Y993392D01*
X548144Y995038D01*
X545407Y996172D01*
X542501Y996750D01*
D02*
G37*
%LPD*%
D11*
X676910Y1049238D02*
Y1069340D01*
X675422Y1047750D02*
X676910Y1049238D01*
X541020Y1047750D02*
X675422D01*
X855980Y1129030D02*
X876300Y1149350D01*
X855980Y1059180D02*
Y1129030D01*
D22*
X516020Y1006710D02*
D03*
X566020D02*
D03*
Y956710D02*
D03*
X516020D02*
D03*
X541020Y981710D02*
D03*
X342030Y1185780D02*
D03*
X392030D02*
D03*
Y1135780D02*
D03*
X342030D02*
D03*
X367030Y1160780D02*
D03*
D23*
X965200Y1154430D02*
D03*
D24*
X990600D02*
D03*
X1016000D02*
D03*
D25*
X676910Y1069340D02*
D03*
X541020Y1047750D02*
D03*
X876300Y1149350D02*
D03*
X855980Y1059180D02*
D03*
M02*
